<!--?xml version="1.0" standalone="no"?-->
              <svg id="sw-js-blob-svg" viewBox="0 0 100 100" xmlns="http://www.w3.org/2000/svg" version="1.1">
                    <defs> 
                        <linearGradient id="sw-gradient" x1="0" x2="1" y1="1" y2="0">
                            <stop id="stop1" stop-color="rgba(0, 0, 0, 1)" offset="0%"></stop>
                            <stop id="stop2" stop-color="rgba(7.577, 7.577, 7.577, 1)" offset="100%"></stop>
                        </linearGradient>
                    </defs>
                <path fill="url(#sw-gradient)" d="M17.3,-27.2C23.2,-26.5,29.6,-23.6,31.6,-18.7C33.7,-13.8,31.4,-6.9,31.4,0C31.3,6.9,33.5,13.7,31,17.9C28.5,22,21.4,23.4,15.5,26.3C9.6,29.2,4.8,33.6,0.2,33.2C-4.4,32.9,-8.8,27.8,-15.1,25.2C-21.4,22.5,-29.6,22.2,-32.9,18.4C-36.2,14.6,-34.5,7.3,-34.2,0.2C-34,-7,-35.1,-14,-32.4,-18.7C-29.6,-23.4,-23,-25.9,-16.9,-26.6C-10.9,-27.3,-5.4,-26.3,0.1,-26.4C5.6,-26.6,11.3,-28,17.3,-27.2Z" width="100%" height="100%" transform="translate(50 50)" stroke-width="0" style="transition: 0.3s;" stroke="url(#sw-gradient)"></path>
              </svg>